<mxfile host="app.diagrams.net" modified="2022-05-28T03:33:36.434Z" agent="5.0 (Windows NT 10.0; Win64; x64) AppleWebKit/537.36 (KHTML, like Gecko) Chrome/102.0.5005.62 Safari/537.36" etag="wdjKuVbdLzubqPS5Y0Jd" version="18.1.3" type="github">
  <diagram id="PIyc8Ka7B5v-z1dnUTlx" name="第 1 页">
    <mxGraphModel dx="1038" dy="588" grid="1" gridSize="10" guides="1" tooltips="1" connect="1" arrows="1" fold="1" page="1" pageScale="1" pageWidth="827" pageHeight="1169" math="0" shadow="0">
      <root>
        <mxCell id="0" />
        <mxCell id="1" parent="0" />
        <mxCell id="n4UblMOPhsednXCEU7MJ-10" style="edgeStyle=orthogonalEdgeStyle;rounded=0;orthogonalLoop=1;jettySize=auto;html=1;exitX=0.5;exitY=1;exitDx=0;exitDy=0;entryX=0.5;entryY=0;entryDx=0;entryDy=0;" edge="1" parent="1" source="n4UblMOPhsednXCEU7MJ-1" target="n4UblMOPhsednXCEU7MJ-2">
          <mxGeometry relative="1" as="geometry" />
        </mxCell>
        <mxCell id="n4UblMOPhsednXCEU7MJ-11" style="edgeStyle=orthogonalEdgeStyle;rounded=0;orthogonalLoop=1;jettySize=auto;html=1;exitX=0.5;exitY=1;exitDx=0;exitDy=0;" edge="1" parent="1" source="n4UblMOPhsednXCEU7MJ-1" target="n4UblMOPhsednXCEU7MJ-5">
          <mxGeometry relative="1" as="geometry" />
        </mxCell>
        <mxCell id="n4UblMOPhsednXCEU7MJ-30" style="edgeStyle=orthogonalEdgeStyle;rounded=0;orthogonalLoop=1;jettySize=auto;html=1;exitX=0.5;exitY=1;exitDx=0;exitDy=0;entryX=0.5;entryY=0;entryDx=0;entryDy=0;" edge="1" parent="1" source="n4UblMOPhsednXCEU7MJ-1" target="n4UblMOPhsednXCEU7MJ-29">
          <mxGeometry relative="1" as="geometry" />
        </mxCell>
        <mxCell id="n4UblMOPhsednXCEU7MJ-36" style="edgeStyle=orthogonalEdgeStyle;rounded=0;orthogonalLoop=1;jettySize=auto;html=1;exitX=0.5;exitY=1;exitDx=0;exitDy=0;entryX=0.5;entryY=0;entryDx=0;entryDy=0;" edge="1" parent="1" source="n4UblMOPhsednXCEU7MJ-1" target="n4UblMOPhsednXCEU7MJ-35">
          <mxGeometry relative="1" as="geometry" />
        </mxCell>
        <mxCell id="n4UblMOPhsednXCEU7MJ-1" value="GameRoot" style="rounded=1;whiteSpace=wrap;html=1;" vertex="1" parent="1">
          <mxGeometry x="440" y="120" width="120" height="40" as="geometry" />
        </mxCell>
        <mxCell id="n4UblMOPhsednXCEU7MJ-13" style="edgeStyle=orthogonalEdgeStyle;rounded=0;orthogonalLoop=1;jettySize=auto;html=1;exitX=0.5;exitY=1;exitDx=0;exitDy=0;entryX=0.5;entryY=0;entryDx=0;entryDy=0;" edge="1" parent="1" source="n4UblMOPhsednXCEU7MJ-2" target="n4UblMOPhsednXCEU7MJ-4">
          <mxGeometry relative="1" as="geometry" />
        </mxCell>
        <mxCell id="n4UblMOPhsednXCEU7MJ-14" style="edgeStyle=orthogonalEdgeStyle;rounded=0;orthogonalLoop=1;jettySize=auto;html=1;exitX=0.5;exitY=1;exitDx=0;exitDy=0;entryX=0.5;entryY=0;entryDx=0;entryDy=0;" edge="1" parent="1" source="n4UblMOPhsednXCEU7MJ-2" target="n4UblMOPhsednXCEU7MJ-8">
          <mxGeometry relative="1" as="geometry" />
        </mxCell>
        <mxCell id="n4UblMOPhsednXCEU7MJ-15" style="edgeStyle=orthogonalEdgeStyle;rounded=0;orthogonalLoop=1;jettySize=auto;html=1;exitX=0.5;exitY=1;exitDx=0;exitDy=0;entryX=0.5;entryY=0;entryDx=0;entryDy=0;" edge="1" parent="1" source="n4UblMOPhsednXCEU7MJ-2" target="n4UblMOPhsednXCEU7MJ-3">
          <mxGeometry relative="1" as="geometry" />
        </mxCell>
        <mxCell id="n4UblMOPhsednXCEU7MJ-2" value="UIManager" style="rounded=1;whiteSpace=wrap;html=1;" vertex="1" parent="1">
          <mxGeometry x="180" y="200" width="120" height="40" as="geometry" />
        </mxCell>
        <mxCell id="n4UblMOPhsednXCEU7MJ-25" style="edgeStyle=orthogonalEdgeStyle;rounded=0;orthogonalLoop=1;jettySize=auto;html=1;exitX=0.5;exitY=1;exitDx=0;exitDy=0;entryX=0.5;entryY=0;entryDx=0;entryDy=0;" edge="1" parent="1" source="n4UblMOPhsednXCEU7MJ-3" target="n4UblMOPhsednXCEU7MJ-22">
          <mxGeometry relative="1" as="geometry" />
        </mxCell>
        <mxCell id="n4UblMOPhsednXCEU7MJ-26" style="edgeStyle=orthogonalEdgeStyle;rounded=0;orthogonalLoop=1;jettySize=auto;html=1;exitX=0.5;exitY=1;exitDx=0;exitDy=0;entryX=0.5;entryY=0;entryDx=0;entryDy=0;" edge="1" parent="1" source="n4UblMOPhsednXCEU7MJ-3" target="n4UblMOPhsednXCEU7MJ-23">
          <mxGeometry relative="1" as="geometry" />
        </mxCell>
        <mxCell id="n4UblMOPhsednXCEU7MJ-28" style="edgeStyle=orthogonalEdgeStyle;rounded=0;orthogonalLoop=1;jettySize=auto;html=1;exitX=0.5;exitY=1;exitDx=0;exitDy=0;entryX=0.5;entryY=0;entryDx=0;entryDy=0;" edge="1" parent="1" source="n4UblMOPhsednXCEU7MJ-3" target="n4UblMOPhsednXCEU7MJ-24">
          <mxGeometry relative="1" as="geometry" />
        </mxCell>
        <mxCell id="n4UblMOPhsednXCEU7MJ-3" value="PanelBace" style="rounded=1;whiteSpace=wrap;html=1;" vertex="1" parent="1">
          <mxGeometry x="200" y="280" width="80" height="40" as="geometry" />
        </mxCell>
        <mxCell id="n4UblMOPhsednXCEU7MJ-4" value="UIType" style="rounded=1;whiteSpace=wrap;html=1;" vertex="1" parent="1">
          <mxGeometry x="90" y="280" width="80" height="40" as="geometry" />
        </mxCell>
        <mxCell id="n4UblMOPhsednXCEU7MJ-16" style="edgeStyle=orthogonalEdgeStyle;rounded=0;orthogonalLoop=1;jettySize=auto;html=1;exitX=0.5;exitY=1;exitDx=0;exitDy=0;entryX=0.5;entryY=0;entryDx=0;entryDy=0;" edge="1" parent="1" source="n4UblMOPhsednXCEU7MJ-5" target="n4UblMOPhsednXCEU7MJ-6">
          <mxGeometry relative="1" as="geometry" />
        </mxCell>
        <mxCell id="n4UblMOPhsednXCEU7MJ-5" value="SceneControl" style="rounded=1;whiteSpace=wrap;html=1;" vertex="1" parent="1">
          <mxGeometry x="440" y="200" width="120" height="40" as="geometry" />
        </mxCell>
        <mxCell id="n4UblMOPhsednXCEU7MJ-19" style="edgeStyle=orthogonalEdgeStyle;rounded=0;orthogonalLoop=1;jettySize=auto;html=1;exitX=0.5;exitY=1;exitDx=0;exitDy=0;entryX=0.5;entryY=0;entryDx=0;entryDy=0;" edge="1" parent="1" source="n4UblMOPhsednXCEU7MJ-6" target="n4UblMOPhsednXCEU7MJ-7">
          <mxGeometry relative="1" as="geometry">
            <Array as="points">
              <mxPoint x="500" y="340" />
              <mxPoint x="425" y="340" />
            </Array>
          </mxGeometry>
        </mxCell>
        <mxCell id="n4UblMOPhsednXCEU7MJ-20" style="edgeStyle=orthogonalEdgeStyle;rounded=0;orthogonalLoop=1;jettySize=auto;html=1;exitX=0.5;exitY=1;exitDx=0;exitDy=0;" edge="1" parent="1" source="n4UblMOPhsednXCEU7MJ-6" target="n4UblMOPhsednXCEU7MJ-17">
          <mxGeometry relative="1" as="geometry" />
        </mxCell>
        <mxCell id="n4UblMOPhsednXCEU7MJ-21" style="edgeStyle=orthogonalEdgeStyle;rounded=0;orthogonalLoop=1;jettySize=auto;html=1;exitX=0.5;exitY=1;exitDx=0;exitDy=0;entryX=0.5;entryY=0;entryDx=0;entryDy=0;" edge="1" parent="1" source="n4UblMOPhsednXCEU7MJ-6" target="n4UblMOPhsednXCEU7MJ-18">
          <mxGeometry relative="1" as="geometry" />
        </mxCell>
        <mxCell id="n4UblMOPhsednXCEU7MJ-6" value="SceneBace" style="rounded=1;whiteSpace=wrap;html=1;" vertex="1" parent="1">
          <mxGeometry x="460" y="280" width="80" height="40" as="geometry" />
        </mxCell>
        <mxCell id="n4UblMOPhsednXCEU7MJ-7" value="Scene1" style="rounded=1;whiteSpace=wrap;html=1;" vertex="1" parent="1">
          <mxGeometry x="400" y="360" width="50" height="40" as="geometry" />
        </mxCell>
        <mxCell id="n4UblMOPhsednXCEU7MJ-8" value="UIMethods" style="rounded=1;whiteSpace=wrap;html=1;" vertex="1" parent="1">
          <mxGeometry x="320" y="280" width="80" height="40" as="geometry" />
        </mxCell>
        <mxCell id="n4UblMOPhsednXCEU7MJ-17" value="Scene2" style="rounded=1;whiteSpace=wrap;html=1;" vertex="1" parent="1">
          <mxGeometry x="475" y="360" width="50" height="40" as="geometry" />
        </mxCell>
        <mxCell id="n4UblMOPhsednXCEU7MJ-18" value="Scene3" style="rounded=1;whiteSpace=wrap;html=1;" vertex="1" parent="1">
          <mxGeometry x="550" y="360" width="50" height="40" as="geometry" />
        </mxCell>
        <mxCell id="n4UblMOPhsednXCEU7MJ-22" value="Panel1" style="rounded=1;whiteSpace=wrap;html=1;" vertex="1" parent="1">
          <mxGeometry x="150" y="360" width="50" height="40" as="geometry" />
        </mxCell>
        <mxCell id="n4UblMOPhsednXCEU7MJ-23" value="Panel2" style="rounded=1;whiteSpace=wrap;html=1;" vertex="1" parent="1">
          <mxGeometry x="215" y="360" width="50" height="40" as="geometry" />
        </mxCell>
        <mxCell id="n4UblMOPhsednXCEU7MJ-24" value="Panel3" style="rounded=1;whiteSpace=wrap;html=1;" vertex="1" parent="1">
          <mxGeometry x="280" y="360" width="50" height="40" as="geometry" />
        </mxCell>
        <mxCell id="n4UblMOPhsednXCEU7MJ-33" style="edgeStyle=orthogonalEdgeStyle;rounded=0;orthogonalLoop=1;jettySize=auto;html=1;exitX=0.5;exitY=1;exitDx=0;exitDy=0;entryX=0.5;entryY=0;entryDx=0;entryDy=0;" edge="1" parent="1" source="n4UblMOPhsednXCEU7MJ-29" target="n4UblMOPhsednXCEU7MJ-31">
          <mxGeometry relative="1" as="geometry" />
        </mxCell>
        <mxCell id="n4UblMOPhsednXCEU7MJ-34" style="edgeStyle=orthogonalEdgeStyle;rounded=0;orthogonalLoop=1;jettySize=auto;html=1;exitX=0.5;exitY=1;exitDx=0;exitDy=0;entryX=0.5;entryY=0;entryDx=0;entryDy=0;" edge="1" parent="1" source="n4UblMOPhsednXCEU7MJ-29" target="n4UblMOPhsednXCEU7MJ-32">
          <mxGeometry relative="1" as="geometry" />
        </mxCell>
        <mxCell id="n4UblMOPhsednXCEU7MJ-29" value="TextPrinterControler" style="rounded=1;whiteSpace=wrap;html=1;" vertex="1" parent="1">
          <mxGeometry x="640" y="200" width="120" height="40" as="geometry" />
        </mxCell>
        <mxCell id="n4UblMOPhsednXCEU7MJ-31" value="TypeTextComponent" style="rounded=1;whiteSpace=wrap;html=1;" vertex="1" parent="1">
          <mxGeometry x="680" y="280" width="120" height="40" as="geometry" />
        </mxCell>
        <mxCell id="n4UblMOPhsednXCEU7MJ-32" value="Text" style="rounded=1;whiteSpace=wrap;html=1;" vertex="1" parent="1">
          <mxGeometry x="600" y="280" width="40" height="40" as="geometry" />
        </mxCell>
        <mxCell id="n4UblMOPhsednXCEU7MJ-35" value="Other" style="rounded=1;whiteSpace=wrap;html=1;" vertex="1" parent="1">
          <mxGeometry x="800" y="200" width="40" height="40" as="geometry" />
        </mxCell>
      </root>
    </mxGraphModel>
  </diagram>
</mxfile>
